<svg width="882" height="882" viewBox="0 0 882 882" fill="none" xmlns="http://www.w3.org/2000/svg">
<path d="M1 1L81 81" stroke="#FAFAFA" stroke-opacity="0.0823529" stroke-width="1.25" stroke-dasharray="2.5 2.5"/>
<path d="M81 1L1 81" stroke="#FAFAFA" stroke-opacity="0.0823529" stroke-width="1.25" stroke-dasharray="2.5 2.5"/>
<path opacity="0.15" d="M81 1H1V81H81V1Z" stroke="#FAFAFA" stroke-opacity="0.0823529" stroke-width="1.25" stroke-dasharray="2.5 2.5"/>
<path d="M81 1L161 81" stroke="#FAFAFA" stroke-opacity="0.0823529" stroke-width="1.25" stroke-dasharray="2.5 2.5"/>
<path d="M161 1L81 81" stroke="#FAFAFA" stroke-opacity="0.0823529" stroke-width="1.25" stroke-dasharray="2.5 2.5"/>
<path opacity="0.15" d="M161 1H81V81H161V1Z" stroke="#FAFAFA" stroke-opacity="0.0823529" stroke-width="1.25" stroke-dasharray="2.5 2.5"/>
<path d="M161 1L241 81" stroke="#FAFAFA" stroke-opacity="0.0823529" stroke-width="1.25" stroke-dasharray="2.5 2.5"/>
<path d="M241 1L161 81" stroke="#FAFAFA" stroke-opacity="0.0823529" stroke-width="1.25" stroke-dasharray="2.5 2.5"/>
<path opacity="0.15" d="M241 1H161V81H241V1Z" stroke="#FAFAFA" stroke-opacity="0.0823529" stroke-width="1.25" stroke-dasharray="2.5 2.5"/>
<path d="M241 1L321 81" stroke="#FAFAFA" stroke-opacity="0.0823529" stroke-width="1.25" stroke-dasharray="2.5 2.5"/>
<path d="M321 1L241 81" stroke="#FAFAFA" stroke-opacity="0.0823529" stroke-width="1.25" stroke-dasharray="2.5 2.5"/>
<path opacity="0.15" d="M321 1H241V81H321V1Z" stroke="#FAFAFA" stroke-opacity="0.0823529" stroke-width="1.25" stroke-dasharray="2.5 2.5"/>
<path d="M321 1L401 81" stroke="#FAFAFA" stroke-opacity="0.0823529" stroke-width="1.25" stroke-dasharray="2.5 2.5"/>
<path d="M401 1L321 81" stroke="#FAFAFA" stroke-opacity="0.0823529" stroke-width="1.25" stroke-dasharray="2.5 2.5"/>
<path opacity="0.15" d="M401 1H321V81H401V1Z" stroke="#FAFAFA" stroke-opacity="0.0823529" stroke-width="1.25" stroke-dasharray="2.5 2.5"/>
<path d="M401 1L481 81" stroke="#FAFAFA" stroke-opacity="0.0823529" stroke-width="1.25" stroke-dasharray="2.5 2.5"/>
<path d="M481 1L401 81" stroke="#FAFAFA" stroke-opacity="0.0823529" stroke-width="1.25" stroke-dasharray="2.5 2.5"/>
<path opacity="0.15" d="M481 1H401V81H481V1Z" stroke="#FAFAFA" stroke-opacity="0.0823529" stroke-width="1.25" stroke-dasharray="2.5 2.5"/>
<path d="M481 1L561 81" stroke="#FAFAFA" stroke-opacity="0.0823529" stroke-width="1.25" stroke-dasharray="2.5 2.5"/>
<path d="M561 1L481 81" stroke="#FAFAFA" stroke-opacity="0.0823529" stroke-width="1.25" stroke-dasharray="2.5 2.5"/>
<path opacity="0.15" d="M561 1H481V81H561V1Z" stroke="#FAFAFA" stroke-opacity="0.0823529" stroke-width="1.25" stroke-dasharray="2.5 2.5"/>
<path d="M561 1L641 81" stroke="#FAFAFA" stroke-opacity="0.0823529" stroke-width="1.25" stroke-dasharray="2.5 2.5"/>
<path d="M641 1L561 81" stroke="#FAFAFA" stroke-opacity="0.0823529" stroke-width="1.25" stroke-dasharray="2.5 2.5"/>
<path opacity="0.15" d="M641 1H561V81H641V1Z" stroke="#FAFAFA" stroke-opacity="0.0823529" stroke-width="1.25" stroke-dasharray="2.5 2.5"/>
<path d="M641 1L721 81" stroke="#FAFAFA" stroke-opacity="0.0823529" stroke-width="1.25" stroke-dasharray="2.5 2.5"/>
<path d="M721 1L641 81" stroke="#FAFAFA" stroke-opacity="0.0823529" stroke-width="1.25" stroke-dasharray="2.5 2.5"/>
<path opacity="0.15" d="M721 1H641V81H721V1Z" stroke="#FAFAFA" stroke-opacity="0.0823529" stroke-width="1.25" stroke-dasharray="2.5 2.5"/>
<path d="M721 1L801 81" stroke="#FAFAFA" stroke-opacity="0.0823529" stroke-width="1.25" stroke-dasharray="2.5 2.5"/>
<path d="M801 1L721 81" stroke="#FAFAFA" stroke-opacity="0.0823529" stroke-width="1.25" stroke-dasharray="2.5 2.5"/>
<path opacity="0.15" d="M801 1H721V81H801V1Z" stroke="#FAFAFA" stroke-opacity="0.0823529" stroke-width="1.25" stroke-dasharray="2.5 2.5"/>
<path d="M801 1L881 81" stroke="#FAFAFA" stroke-opacity="0.0823529" stroke-width="1.25" stroke-dasharray="2.5 2.5"/>
<path d="M881 1L801 81" stroke="#FAFAFA" stroke-opacity="0.0823529" stroke-width="1.25" stroke-dasharray="2.5 2.5"/>
<path opacity="0.15" d="M881 1H801V81H881V1Z" stroke="#FAFAFA" stroke-opacity="0.0823529" stroke-width="1.25" stroke-dasharray="2.5 2.5"/>
<path d="M1 81L81 161" stroke="#FAFAFA" stroke-opacity="0.0823529" stroke-width="1.25" stroke-dasharray="2.5 2.5"/>
<path d="M81 81L1 161" stroke="#FAFAFA" stroke-opacity="0.0823529" stroke-width="1.25" stroke-dasharray="2.5 2.5"/>
<path opacity="0.15" d="M81 81H1V161H81V81Z" stroke="#FAFAFA" stroke-opacity="0.0823529" stroke-width="1.25" stroke-dasharray="2.5 2.5"/>
<path d="M81 81L161 161" stroke="#FAFAFA" stroke-opacity="0.0823529" stroke-width="1.25" stroke-dasharray="2.5 2.5"/>
<path d="M161 81L81 161" stroke="#FAFAFA" stroke-opacity="0.0823529" stroke-width="1.25" stroke-dasharray="2.5 2.5"/>
<path opacity="0.15" d="M161 81H81V161H161V81Z" stroke="#FAFAFA" stroke-opacity="0.0823529" stroke-width="1.25" stroke-dasharray="2.5 2.5"/>
<path d="M161 81L241 161" stroke="#FAFAFA" stroke-opacity="0.0823529" stroke-width="1.25" stroke-dasharray="2.5 2.5"/>
<path d="M241 81L161 161" stroke="#FAFAFA" stroke-opacity="0.0823529" stroke-width="1.25" stroke-dasharray="2.5 2.5"/>
<path opacity="0.15" d="M241 81H161V161H241V81Z" stroke="#FAFAFA" stroke-opacity="0.0823529" stroke-width="1.25" stroke-dasharray="2.5 2.5"/>
<path d="M241 81L321 161" stroke="#FAFAFA" stroke-opacity="0.0823529" stroke-width="1.25" stroke-dasharray="2.5 2.5"/>
<path d="M321 81L241 161" stroke="#FAFAFA" stroke-opacity="0.0823529" stroke-width="1.25" stroke-dasharray="2.5 2.5"/>
<path opacity="0.15" d="M321 81H241V161H321V81Z" stroke="#FAFAFA" stroke-opacity="0.0823529" stroke-width="1.25" stroke-dasharray="2.5 2.5"/>
<path d="M321 81L401 161" stroke="#FAFAFA" stroke-opacity="0.0823529" stroke-width="1.25" stroke-dasharray="2.5 2.5"/>
<path d="M401 81L321 161" stroke="#FAFAFA" stroke-opacity="0.0823529" stroke-width="1.25" stroke-dasharray="2.5 2.5"/>
<path opacity="0.15" d="M401 81H321V161H401V81Z" stroke="#FAFAFA" stroke-opacity="0.0823529" stroke-width="1.25" stroke-dasharray="2.5 2.5"/>
<path d="M401 81L481 161" stroke="#FAFAFA" stroke-opacity="0.0823529" stroke-width="1.25" stroke-dasharray="2.5 2.5"/>
<path d="M481 81L401 161" stroke="#FAFAFA" stroke-opacity="0.0823529" stroke-width="1.25" stroke-dasharray="2.5 2.5"/>
<path opacity="0.15" d="M481 81H401V161H481V81Z" stroke="#FAFAFA" stroke-opacity="0.0823529" stroke-width="1.25" stroke-dasharray="2.5 2.5"/>
<path d="M481 81L561 161" stroke="#FAFAFA" stroke-opacity="0.0823529" stroke-width="1.25" stroke-dasharray="2.5 2.5"/>
<path d="M561 81L481 161" stroke="#FAFAFA" stroke-opacity="0.0823529" stroke-width="1.25" stroke-dasharray="2.5 2.5"/>
<path opacity="0.15" d="M561 81H481V161H561V81Z" stroke="#FAFAFA" stroke-opacity="0.0823529" stroke-width="1.25" stroke-dasharray="2.5 2.5"/>
<path d="M561 81L641 161" stroke="#FAFAFA" stroke-opacity="0.0823529" stroke-width="1.25" stroke-dasharray="2.5 2.5"/>
<path d="M641 81L561 161" stroke="#FAFAFA" stroke-opacity="0.0823529" stroke-width="1.25" stroke-dasharray="2.5 2.5"/>
<path opacity="0.15" d="M641 81H561V161H641V81Z" stroke="#FAFAFA" stroke-opacity="0.0823529" stroke-width="1.25" stroke-dasharray="2.5 2.5"/>
<path d="M641 81L721 161" stroke="#FAFAFA" stroke-opacity="0.0823529" stroke-width="1.25" stroke-dasharray="2.5 2.5"/>
<path d="M721 81L641 161" stroke="#FAFAFA" stroke-opacity="0.0823529" stroke-width="1.25" stroke-dasharray="2.5 2.5"/>
<path opacity="0.15" d="M721 81H641V161H721V81Z" stroke="#FAFAFA" stroke-opacity="0.0823529" stroke-width="1.25" stroke-dasharray="2.5 2.5"/>
<path d="M721 81L801 161" stroke="#FAFAFA" stroke-opacity="0.0823529" stroke-width="1.25" stroke-dasharray="2.5 2.5"/>
<path d="M801 81L721 161" stroke="#FAFAFA" stroke-opacity="0.0823529" stroke-width="1.25" stroke-dasharray="2.5 2.5"/>
<path opacity="0.15" d="M801 81H721V161H801V81Z" stroke="#FAFAFA" stroke-opacity="0.0823529" stroke-width="1.25" stroke-dasharray="2.5 2.5"/>
<path d="M801 81L881 161" stroke="#FAFAFA" stroke-opacity="0.0823529" stroke-width="1.25" stroke-dasharray="2.5 2.5"/>
<path d="M881 81L801 161" stroke="#FAFAFA" stroke-opacity="0.0823529" stroke-width="1.25" stroke-dasharray="2.5 2.5"/>
<path opacity="0.15" d="M881 81H801V161H881V81Z" stroke="#FAFAFA" stroke-opacity="0.0823529" stroke-width="1.25" stroke-dasharray="2.5 2.5"/>
<path d="M1 161L81 241" stroke="#FAFAFA" stroke-opacity="0.0823529" stroke-width="1.25" stroke-dasharray="2.5 2.5"/>
<path d="M81 161L1 241" stroke="#FAFAFA" stroke-opacity="0.0823529" stroke-width="1.25" stroke-dasharray="2.5 2.5"/>
<path opacity="0.15" d="M81 161H1V241H81V161Z" stroke="#FAFAFA" stroke-opacity="0.0823529" stroke-width="1.25" stroke-dasharray="2.5 2.5"/>
<path d="M81 161L161 241" stroke="#FAFAFA" stroke-opacity="0.0823529" stroke-width="1.25" stroke-dasharray="2.5 2.5"/>
<path d="M161 161L81 241" stroke="#FAFAFA" stroke-opacity="0.0823529" stroke-width="1.25" stroke-dasharray="2.5 2.5"/>
<path opacity="0.15" d="M161 161H81V241H161V161Z" stroke="#FAFAFA" stroke-opacity="0.0823529" stroke-width="1.25" stroke-dasharray="2.5 2.5"/>
<path d="M161 161L241 241" stroke="#FAFAFA" stroke-opacity="0.0823529" stroke-width="1.25" stroke-dasharray="2.5 2.5"/>
<path d="M241 161L161 241" stroke="#FAFAFA" stroke-opacity="0.0823529" stroke-width="1.25" stroke-dasharray="2.5 2.5"/>
<path opacity="0.15" d="M241 161H161V241H241V161Z" stroke="#FAFAFA" stroke-opacity="0.0823529" stroke-width="1.25" stroke-dasharray="2.5 2.5"/>
<path d="M241 161L321 241" stroke="#FAFAFA" stroke-opacity="0.0823529" stroke-width="1.25" stroke-dasharray="2.5 2.5"/>
<path d="M321 161L241 241" stroke="#FAFAFA" stroke-opacity="0.0823529" stroke-width="1.25" stroke-dasharray="2.5 2.5"/>
<path opacity="0.15" d="M321 161H241V241H321V161Z" stroke="#FAFAFA" stroke-opacity="0.0823529" stroke-width="1.25" stroke-dasharray="2.5 2.5"/>
<path d="M321 161L401 241" stroke="#FAFAFA" stroke-opacity="0.0823529" stroke-width="1.25" stroke-dasharray="2.5 2.5"/>
<path d="M401 161L321 241" stroke="#FAFAFA" stroke-opacity="0.0823529" stroke-width="1.25" stroke-dasharray="2.5 2.5"/>
<path opacity="0.15" d="M401 161H321V241H401V161Z" stroke="#FAFAFA" stroke-opacity="0.0823529" stroke-width="1.25" stroke-dasharray="2.5 2.5"/>
<path d="M401 161L481 241" stroke="#FAFAFA" stroke-opacity="0.0823529" stroke-width="1.25" stroke-dasharray="2.5 2.5"/>
<path d="M481 161L401 241" stroke="#FAFAFA" stroke-opacity="0.0823529" stroke-width="1.25" stroke-dasharray="2.5 2.5"/>
<path opacity="0.15" d="M481 161H401V241H481V161Z" stroke="#FAFAFA" stroke-opacity="0.0823529" stroke-width="1.25" stroke-dasharray="2.5 2.5"/>
<path d="M481 161L561 241" stroke="#FAFAFA" stroke-opacity="0.0823529" stroke-width="1.25" stroke-dasharray="2.5 2.5"/>
<path d="M561 161L481 241" stroke="#FAFAFA" stroke-opacity="0.0823529" stroke-width="1.25" stroke-dasharray="2.5 2.5"/>
<path opacity="0.15" d="M561 161H481V241H561V161Z" stroke="#FAFAFA" stroke-opacity="0.0823529" stroke-width="1.25" stroke-dasharray="2.5 2.5"/>
<path d="M561 161L641 241" stroke="#FAFAFA" stroke-opacity="0.0823529" stroke-width="1.25" stroke-dasharray="2.5 2.5"/>
<path d="M641 161L561 241" stroke="#FAFAFA" stroke-opacity="0.0823529" stroke-width="1.25" stroke-dasharray="2.5 2.5"/>
<path opacity="0.15" d="M641 161H561V241H641V161Z" stroke="#FAFAFA" stroke-opacity="0.0823529" stroke-width="1.25" stroke-dasharray="2.5 2.5"/>
<path d="M641 161L721 241" stroke="#FAFAFA" stroke-opacity="0.0823529" stroke-width="1.25" stroke-dasharray="2.5 2.5"/>
<path d="M721 161L641 241" stroke="#FAFAFA" stroke-opacity="0.0823529" stroke-width="1.25" stroke-dasharray="2.5 2.5"/>
<path opacity="0.15" d="M721 161H641V241H721V161Z" stroke="#FAFAFA" stroke-opacity="0.0823529" stroke-width="1.25" stroke-dasharray="2.5 2.5"/>
<path d="M721 161L801 241" stroke="#FAFAFA" stroke-opacity="0.0823529" stroke-width="1.25" stroke-dasharray="2.5 2.5"/>
<path d="M801 161L721 241" stroke="#FAFAFA" stroke-opacity="0.0823529" stroke-width="1.25" stroke-dasharray="2.5 2.5"/>
<path opacity="0.15" d="M801 161H721V241H801V161Z" stroke="#FAFAFA" stroke-opacity="0.0823529" stroke-width="1.25" stroke-dasharray="2.5 2.5"/>
<path d="M801 161L881 241" stroke="#FAFAFA" stroke-opacity="0.0823529" stroke-width="1.25" stroke-dasharray="2.5 2.5"/>
<path d="M881 161L801 241" stroke="#FAFAFA" stroke-opacity="0.0823529" stroke-width="1.25" stroke-dasharray="2.5 2.5"/>
<path opacity="0.15" d="M881 161H801V241H881V161Z" stroke="#FAFAFA" stroke-opacity="0.0823529" stroke-width="1.25" stroke-dasharray="2.5 2.5"/>
<path d="M1 241L81 321" stroke="#FAFAFA" stroke-opacity="0.0823529" stroke-width="1.25" stroke-dasharray="2.5 2.5"/>
<path d="M81 241L1 321" stroke="#FAFAFA" stroke-opacity="0.0823529" stroke-width="1.25" stroke-dasharray="2.5 2.5"/>
<path opacity="0.15" d="M81 241H1V321H81V241Z" stroke="#FAFAFA" stroke-opacity="0.0823529" stroke-width="1.25" stroke-dasharray="2.5 2.5"/>
<path d="M81 241L161 321" stroke="#FAFAFA" stroke-opacity="0.0823529" stroke-width="1.25" stroke-dasharray="2.5 2.5"/>
<path d="M161 241L81 321" stroke="#FAFAFA" stroke-opacity="0.0823529" stroke-width="1.25" stroke-dasharray="2.5 2.5"/>
<path opacity="0.15" d="M161 241H81V321H161V241Z" stroke="#FAFAFA" stroke-opacity="0.0823529" stroke-width="1.25" stroke-dasharray="2.5 2.5"/>
<path d="M161 241L241 321" stroke="#FAFAFA" stroke-opacity="0.0823529" stroke-width="1.25" stroke-dasharray="2.5 2.5"/>
<path d="M241 241L161 321" stroke="#FAFAFA" stroke-opacity="0.0823529" stroke-width="1.25" stroke-dasharray="2.5 2.5"/>
<path opacity="0.15" d="M241 241H161V321H241V241Z" stroke="#FAFAFA" stroke-opacity="0.0823529" stroke-width="1.25" stroke-dasharray="2.5 2.5"/>
<path d="M241 241L321 321" stroke="#FAFAFA" stroke-opacity="0.0823529" stroke-width="1.25" stroke-dasharray="2.5 2.5"/>
<path d="M321 241L241 321" stroke="#FAFAFA" stroke-opacity="0.0823529" stroke-width="1.25" stroke-dasharray="2.5 2.5"/>
<path opacity="0.15" d="M321 241H241V321H321V241Z" stroke="#FAFAFA" stroke-opacity="0.0823529" stroke-width="1.25" stroke-dasharray="2.5 2.5"/>
<path d="M321 241L401 321" stroke="#FAFAFA" stroke-opacity="0.0823529" stroke-width="1.25" stroke-dasharray="2.5 2.5"/>
<path d="M401 241L321 321" stroke="#FAFAFA" stroke-opacity="0.0823529" stroke-width="1.25" stroke-dasharray="2.5 2.5"/>
<path opacity="0.15" d="M401 241H321V321H401V241Z" stroke="#FAFAFA" stroke-opacity="0.0823529" stroke-width="1.25" stroke-dasharray="2.5 2.5"/>
<path d="M401 241L481 321" stroke="#FAFAFA" stroke-opacity="0.0823529" stroke-width="1.25" stroke-dasharray="2.5 2.5"/>
<path d="M481 241L401 321" stroke="#FAFAFA" stroke-opacity="0.0823529" stroke-width="1.25" stroke-dasharray="2.5 2.5"/>
<path opacity="0.15" d="M481 241H401V321H481V241Z" stroke="#FAFAFA" stroke-opacity="0.0823529" stroke-width="1.25" stroke-dasharray="2.5 2.5"/>
<path d="M481 241L561 321" stroke="#FAFAFA" stroke-opacity="0.0823529" stroke-width="1.25" stroke-dasharray="2.5 2.5"/>
<path d="M561 241L481 321" stroke="#FAFAFA" stroke-opacity="0.0823529" stroke-width="1.25" stroke-dasharray="2.5 2.5"/>
<path opacity="0.15" d="M561 241H481V321H561V241Z" stroke="#FAFAFA" stroke-opacity="0.0823529" stroke-width="1.25" stroke-dasharray="2.5 2.5"/>
<path d="M561 241L641 321" stroke="#FAFAFA" stroke-opacity="0.0823529" stroke-width="1.25" stroke-dasharray="2.5 2.5"/>
<path d="M641 241L561 321" stroke="#FAFAFA" stroke-opacity="0.0823529" stroke-width="1.25" stroke-dasharray="2.5 2.5"/>
<path opacity="0.15" d="M641 241H561V321H641V241Z" stroke="#FAFAFA" stroke-opacity="0.0823529" stroke-width="1.25" stroke-dasharray="2.5 2.5"/>
<path d="M641 241L721 321" stroke="#FAFAFA" stroke-opacity="0.0823529" stroke-width="1.25" stroke-dasharray="2.5 2.5"/>
<path d="M721 241L641 321" stroke="#FAFAFA" stroke-opacity="0.0823529" stroke-width="1.25" stroke-dasharray="2.5 2.5"/>
<path opacity="0.15" d="M721 241H641V321H721V241Z" stroke="#FAFAFA" stroke-opacity="0.0823529" stroke-width="1.25" stroke-dasharray="2.5 2.5"/>
<path d="M721 241L801 321" stroke="#FAFAFA" stroke-opacity="0.0823529" stroke-width="1.25" stroke-dasharray="2.5 2.5"/>
<path d="M801 241L721 321" stroke="#FAFAFA" stroke-opacity="0.0823529" stroke-width="1.25" stroke-dasharray="2.5 2.5"/>
<path opacity="0.15" d="M801 241H721V321H801V241Z" stroke="#FAFAFA" stroke-opacity="0.0823529" stroke-width="1.25" stroke-dasharray="2.5 2.5"/>
<path d="M801 241L881 321" stroke="#FAFAFA" stroke-opacity="0.0823529" stroke-width="1.25" stroke-dasharray="2.5 2.5"/>
<path d="M881 241L801 321" stroke="#FAFAFA" stroke-opacity="0.0823529" stroke-width="1.25" stroke-dasharray="2.5 2.5"/>
<path opacity="0.15" d="M881 241H801V321H881V241Z" stroke="#FAFAFA" stroke-opacity="0.0823529" stroke-width="1.25" stroke-dasharray="2.5 2.5"/>
<path d="M1 321L81 401" stroke="#FAFAFA" stroke-opacity="0.0823529" stroke-width="1.25" stroke-dasharray="2.5 2.5"/>
<path d="M81 321L1 401" stroke="#FAFAFA" stroke-opacity="0.0823529" stroke-width="1.25" stroke-dasharray="2.5 2.5"/>
<path opacity="0.15" d="M81 321H1V401H81V321Z" stroke="#FAFAFA" stroke-opacity="0.0823529" stroke-width="1.25" stroke-dasharray="2.5 2.5"/>
<path d="M81 321L161 401" stroke="#FAFAFA" stroke-opacity="0.0823529" stroke-width="1.25" stroke-dasharray="2.5 2.5"/>
<path d="M161 321L81 401" stroke="#FAFAFA" stroke-opacity="0.0823529" stroke-width="1.25" stroke-dasharray="2.5 2.5"/>
<path opacity="0.15" d="M161 321H81V401H161V321Z" stroke="#FAFAFA" stroke-opacity="0.0823529" stroke-width="1.25" stroke-dasharray="2.5 2.5"/>
<path d="M161 321L241 401" stroke="#FAFAFA" stroke-opacity="0.0823529" stroke-width="1.25" stroke-dasharray="2.5 2.5"/>
<path d="M241 321L161 401" stroke="#FAFAFA" stroke-opacity="0.0823529" stroke-width="1.25" stroke-dasharray="2.5 2.5"/>
<path opacity="0.15" d="M241 321H161V401H241V321Z" stroke="#FAFAFA" stroke-opacity="0.0823529" stroke-width="1.25" stroke-dasharray="2.5 2.5"/>
<path d="M241 321L321 401" stroke="#FAFAFA" stroke-opacity="0.0823529" stroke-width="1.25" stroke-dasharray="2.5 2.5"/>
<path d="M321 321L241 401" stroke="#FAFAFA" stroke-opacity="0.0823529" stroke-width="1.25" stroke-dasharray="2.5 2.5"/>
<path opacity="0.15" d="M321 321H241V401H321V321Z" stroke="#FAFAFA" stroke-opacity="0.0823529" stroke-width="1.25" stroke-dasharray="2.5 2.5"/>
<path d="M321 321L401 401" stroke="#FAFAFA" stroke-opacity="0.0823529" stroke-width="1.25" stroke-dasharray="2.5 2.5"/>
<path d="M401 321L321 401" stroke="#FAFAFA" stroke-opacity="0.0823529" stroke-width="1.25" stroke-dasharray="2.5 2.5"/>
<path opacity="0.15" d="M401 321H321V401H401V321Z" stroke="#FAFAFA" stroke-opacity="0.0823529" stroke-width="1.25" stroke-dasharray="2.5 2.5"/>
<path d="M401 321L481 401" stroke="#FAFAFA" stroke-opacity="0.0823529" stroke-width="1.25" stroke-dasharray="2.5 2.5"/>
<path d="M481 321L401 401" stroke="#FAFAFA" stroke-opacity="0.0823529" stroke-width="1.25" stroke-dasharray="2.5 2.5"/>
<path opacity="0.15" d="M481 321H401V401H481V321Z" stroke="#FAFAFA" stroke-opacity="0.0823529" stroke-width="1.25" stroke-dasharray="2.5 2.5"/>
<path d="M481 321L561 401" stroke="#FAFAFA" stroke-opacity="0.0823529" stroke-width="1.25" stroke-dasharray="2.5 2.5"/>
<path d="M561 321L481 401" stroke="#FAFAFA" stroke-opacity="0.0823529" stroke-width="1.25" stroke-dasharray="2.5 2.5"/>
<path opacity="0.15" d="M561 321H481V401H561V321Z" stroke="#FAFAFA" stroke-opacity="0.0823529" stroke-width="1.25" stroke-dasharray="2.5 2.5"/>
<path d="M561 321L641 401" stroke="#FAFAFA" stroke-opacity="0.0823529" stroke-width="1.25" stroke-dasharray="2.5 2.5"/>
<path d="M641 321L561 401" stroke="#FAFAFA" stroke-opacity="0.0823529" stroke-width="1.25" stroke-dasharray="2.5 2.5"/>
<path opacity="0.15" d="M641 321H561V401H641V321Z" stroke="#FAFAFA" stroke-opacity="0.0823529" stroke-width="1.25" stroke-dasharray="2.5 2.5"/>
<path d="M641 321L721 401" stroke="#FAFAFA" stroke-opacity="0.0823529" stroke-width="1.25" stroke-dasharray="2.5 2.5"/>
<path d="M721 321L641 401" stroke="#FAFAFA" stroke-opacity="0.0823529" stroke-width="1.25" stroke-dasharray="2.5 2.5"/>
<path opacity="0.15" d="M721 321H641V401H721V321Z" stroke="#FAFAFA" stroke-opacity="0.0823529" stroke-width="1.25" stroke-dasharray="2.5 2.5"/>
<path d="M721 321L801 401" stroke="#FAFAFA" stroke-opacity="0.0823529" stroke-width="1.25" stroke-dasharray="2.5 2.5"/>
<path d="M801 321L721 401" stroke="#FAFAFA" stroke-opacity="0.0823529" stroke-width="1.25" stroke-dasharray="2.5 2.5"/>
<path opacity="0.15" d="M801 321H721V401H801V321Z" stroke="#FAFAFA" stroke-opacity="0.0823529" stroke-width="1.25" stroke-dasharray="2.5 2.5"/>
<path d="M801 321L881 401" stroke="#FAFAFA" stroke-opacity="0.0823529" stroke-width="1.25" stroke-dasharray="2.5 2.5"/>
<path d="M881 321L801 401" stroke="#FAFAFA" stroke-opacity="0.0823529" stroke-width="1.25" stroke-dasharray="2.5 2.5"/>
<path opacity="0.15" d="M881 321H801V401H881V321Z" stroke="#FAFAFA" stroke-opacity="0.0823529" stroke-width="1.25" stroke-dasharray="2.5 2.5"/>
<path d="M1 401L81 481" stroke="#FAFAFA" stroke-opacity="0.0823529" stroke-width="1.25" stroke-dasharray="2.5 2.5"/>
<path d="M81 401L1 481" stroke="#FAFAFA" stroke-opacity="0.0823529" stroke-width="1.25" stroke-dasharray="2.5 2.5"/>
<path opacity="0.15" d="M81 401H1V481H81V401Z" stroke="#FAFAFA" stroke-opacity="0.0823529" stroke-width="1.25" stroke-dasharray="2.5 2.5"/>
<path d="M81 401L161 481" stroke="#FAFAFA" stroke-opacity="0.0823529" stroke-width="1.25" stroke-dasharray="2.5 2.5"/>
<path d="M161 401L81 481" stroke="#FAFAFA" stroke-opacity="0.0823529" stroke-width="1.25" stroke-dasharray="2.5 2.5"/>
<path opacity="0.15" d="M161 401H81V481H161V401Z" stroke="#FAFAFA" stroke-opacity="0.0823529" stroke-width="1.25" stroke-dasharray="2.5 2.5"/>
<path d="M161 401L241 481" stroke="#FAFAFA" stroke-opacity="0.0823529" stroke-width="1.25" stroke-dasharray="2.5 2.5"/>
<path d="M241 401L161 481" stroke="#FAFAFA" stroke-opacity="0.0823529" stroke-width="1.25" stroke-dasharray="2.5 2.5"/>
<path opacity="0.15" d="M241 401H161V481H241V401Z" stroke="#FAFAFA" stroke-opacity="0.0823529" stroke-width="1.25" stroke-dasharray="2.5 2.5"/>
<path d="M241 401L321 481" stroke="#FAFAFA" stroke-opacity="0.0823529" stroke-width="1.25" stroke-dasharray="2.5 2.5"/>
<path d="M321 401L241 481" stroke="#FAFAFA" stroke-opacity="0.0823529" stroke-width="1.25" stroke-dasharray="2.5 2.5"/>
<path opacity="0.15" d="M321 401H241V481H321V401Z" stroke="#FAFAFA" stroke-opacity="0.0823529" stroke-width="1.25" stroke-dasharray="2.5 2.5"/>
<path d="M321 401L401 481" stroke="#FAFAFA" stroke-opacity="0.0823529" stroke-width="1.25" stroke-dasharray="2.5 2.5"/>
<path d="M401 401L321 481" stroke="#FAFAFA" stroke-opacity="0.0823529" stroke-width="1.25" stroke-dasharray="2.5 2.5"/>
<path opacity="0.15" d="M401 401H321V481H401V401Z" stroke="#FAFAFA" stroke-opacity="0.0823529" stroke-width="1.25" stroke-dasharray="2.5 2.5"/>
<path d="M401 401L481 481" stroke="#FAFAFA" stroke-opacity="0.0823529" stroke-width="1.25" stroke-dasharray="2.5 2.5"/>
<path d="M481 401L401 481" stroke="#FAFAFA" stroke-opacity="0.0823529" stroke-width="1.25" stroke-dasharray="2.5 2.5"/>
<path opacity="0.15" d="M481 401H401V481H481V401Z" stroke="#FAFAFA" stroke-opacity="0.0823529" stroke-width="1.25" stroke-dasharray="2.5 2.5"/>
<path d="M481 401L561 481" stroke="#FAFAFA" stroke-opacity="0.0823529" stroke-width="1.25" stroke-dasharray="2.5 2.5"/>
<path d="M561 401L481 481" stroke="#FAFAFA" stroke-opacity="0.0823529" stroke-width="1.25" stroke-dasharray="2.5 2.5"/>
<path opacity="0.15" d="M561 401H481V481H561V401Z" stroke="#FAFAFA" stroke-opacity="0.0823529" stroke-width="1.25" stroke-dasharray="2.5 2.5"/>
<path d="M561 401L641 481" stroke="#FAFAFA" stroke-opacity="0.0823529" stroke-width="1.25" stroke-dasharray="2.5 2.5"/>
<path d="M641 401L561 481" stroke="#FAFAFA" stroke-opacity="0.0823529" stroke-width="1.25" stroke-dasharray="2.5 2.5"/>
<path opacity="0.15" d="M641 401H561V481H641V401Z" stroke="#FAFAFA" stroke-opacity="0.0823529" stroke-width="1.25" stroke-dasharray="2.5 2.5"/>
<path d="M641 401L721 481" stroke="#FAFAFA" stroke-opacity="0.0823529" stroke-width="1.25" stroke-dasharray="2.5 2.5"/>
<path d="M721 401L641 481" stroke="#FAFAFA" stroke-opacity="0.0823529" stroke-width="1.25" stroke-dasharray="2.5 2.5"/>
<path opacity="0.15" d="M721 401H641V481H721V401Z" stroke="#FAFAFA" stroke-opacity="0.0823529" stroke-width="1.25" stroke-dasharray="2.5 2.5"/>
<path d="M721 401L801 481" stroke="#FAFAFA" stroke-opacity="0.0823529" stroke-width="1.25" stroke-dasharray="2.5 2.5"/>
<path d="M801 401L721 481" stroke="#FAFAFA" stroke-opacity="0.0823529" stroke-width="1.25" stroke-dasharray="2.5 2.5"/>
<path opacity="0.15" d="M801 401H721V481H801V401Z" stroke="#FAFAFA" stroke-opacity="0.0823529" stroke-width="1.25" stroke-dasharray="2.5 2.5"/>
<path d="M801 401L881 481" stroke="#FAFAFA" stroke-opacity="0.0823529" stroke-width="1.25" stroke-dasharray="2.5 2.5"/>
<path d="M881 401L801 481" stroke="#FAFAFA" stroke-opacity="0.0823529" stroke-width="1.25" stroke-dasharray="2.5 2.5"/>
<path opacity="0.15" d="M881 401H801V481H881V401Z" stroke="#FAFAFA" stroke-opacity="0.0823529" stroke-width="1.25" stroke-dasharray="2.5 2.5"/>
<path d="M1 481L81 561" stroke="#FAFAFA" stroke-opacity="0.0823529" stroke-width="1.25" stroke-dasharray="2.5 2.5"/>
<path d="M81 481L1 561" stroke="#FAFAFA" stroke-opacity="0.0823529" stroke-width="1.25" stroke-dasharray="2.5 2.5"/>
<path opacity="0.15" d="M81 481H1V561H81V481Z" stroke="#FAFAFA" stroke-opacity="0.0823529" stroke-width="1.25" stroke-dasharray="2.5 2.5"/>
<path d="M81 481L161 561" stroke="#FAFAFA" stroke-opacity="0.0823529" stroke-width="1.25" stroke-dasharray="2.5 2.5"/>
<path d="M161 481L81 561" stroke="#FAFAFA" stroke-opacity="0.0823529" stroke-width="1.25" stroke-dasharray="2.5 2.5"/>
<path opacity="0.15" d="M161 481H81V561H161V481Z" stroke="#FAFAFA" stroke-opacity="0.0823529" stroke-width="1.25" stroke-dasharray="2.5 2.5"/>
<path d="M161 481L241 561" stroke="#FAFAFA" stroke-opacity="0.0823529" stroke-width="1.25" stroke-dasharray="2.5 2.5"/>
<path d="M241 481L161 561" stroke="#FAFAFA" stroke-opacity="0.0823529" stroke-width="1.25" stroke-dasharray="2.5 2.5"/>
<path opacity="0.15" d="M241 481H161V561H241V481Z" stroke="#FAFAFA" stroke-opacity="0.0823529" stroke-width="1.25" stroke-dasharray="2.5 2.5"/>
<path d="M241 481L321 561" stroke="#FAFAFA" stroke-opacity="0.0823529" stroke-width="1.25" stroke-dasharray="2.5 2.5"/>
<path d="M321 481L241 561" stroke="#FAFAFA" stroke-opacity="0.0823529" stroke-width="1.25" stroke-dasharray="2.5 2.5"/>
<path opacity="0.15" d="M321 481H241V561H321V481Z" stroke="#FAFAFA" stroke-opacity="0.0823529" stroke-width="1.25" stroke-dasharray="2.5 2.5"/>
<path d="M321 481L401 561" stroke="#FAFAFA" stroke-opacity="0.0823529" stroke-width="1.25" stroke-dasharray="2.5 2.5"/>
<path d="M401 481L321 561" stroke="#FAFAFA" stroke-opacity="0.0823529" stroke-width="1.25" stroke-dasharray="2.5 2.5"/>
<path opacity="0.15" d="M401 481H321V561H401V481Z" stroke="#FAFAFA" stroke-opacity="0.0823529" stroke-width="1.25" stroke-dasharray="2.5 2.5"/>
<path d="M401 481L481 561" stroke="#FAFAFA" stroke-opacity="0.0823529" stroke-width="1.25" stroke-dasharray="2.5 2.5"/>
<path d="M481 481L401 561" stroke="#FAFAFA" stroke-opacity="0.0823529" stroke-width="1.25" stroke-dasharray="2.5 2.5"/>
<path opacity="0.15" d="M481 481H401V561H481V481Z" stroke="#FAFAFA" stroke-opacity="0.0823529" stroke-width="1.25" stroke-dasharray="2.5 2.5"/>
<path d="M481 481L561 561" stroke="#FAFAFA" stroke-opacity="0.0823529" stroke-width="1.25" stroke-dasharray="2.5 2.5"/>
<path d="M561 481L481 561" stroke="#FAFAFA" stroke-opacity="0.0823529" stroke-width="1.25" stroke-dasharray="2.5 2.5"/>
<path opacity="0.15" d="M561 481H481V561H561V481Z" stroke="#FAFAFA" stroke-opacity="0.0823529" stroke-width="1.25" stroke-dasharray="2.5 2.5"/>
<path d="M561 481L641 561" stroke="#FAFAFA" stroke-opacity="0.0823529" stroke-width="1.25" stroke-dasharray="2.5 2.5"/>
<path d="M641 481L561 561" stroke="#FAFAFA" stroke-opacity="0.0823529" stroke-width="1.25" stroke-dasharray="2.5 2.5"/>
<path opacity="0.15" d="M641 481H561V561H641V481Z" stroke="#FAFAFA" stroke-opacity="0.0823529" stroke-width="1.25" stroke-dasharray="2.5 2.5"/>
<path d="M641 481L721 561" stroke="#FAFAFA" stroke-opacity="0.0823529" stroke-width="1.25" stroke-dasharray="2.5 2.5"/>
<path d="M721 481L641 561" stroke="#FAFAFA" stroke-opacity="0.0823529" stroke-width="1.25" stroke-dasharray="2.5 2.5"/>
<path opacity="0.15" d="M721 481H641V561H721V481Z" stroke="#FAFAFA" stroke-opacity="0.0823529" stroke-width="1.25" stroke-dasharray="2.5 2.5"/>
<path d="M721 481L801 561" stroke="#FAFAFA" stroke-opacity="0.0823529" stroke-width="1.25" stroke-dasharray="2.5 2.5"/>
<path d="M801 481L721 561" stroke="#FAFAFA" stroke-opacity="0.0823529" stroke-width="1.25" stroke-dasharray="2.5 2.5"/>
<path opacity="0.15" d="M801 481H721V561H801V481Z" stroke="#FAFAFA" stroke-opacity="0.0823529" stroke-width="1.25" stroke-dasharray="2.5 2.5"/>
<path d="M801 481L881 561" stroke="#FAFAFA" stroke-opacity="0.0823529" stroke-width="1.25" stroke-dasharray="2.5 2.5"/>
<path d="M881 481L801 561" stroke="#FAFAFA" stroke-opacity="0.0823529" stroke-width="1.25" stroke-dasharray="2.5 2.5"/>
<path opacity="0.15" d="M881 481H801V561H881V481Z" stroke="#FAFAFA" stroke-opacity="0.0823529" stroke-width="1.25" stroke-dasharray="2.5 2.5"/>
<path d="M1 561L81 641" stroke="#FAFAFA" stroke-opacity="0.0823529" stroke-width="1.25" stroke-dasharray="2.5 2.5"/>
<path d="M81 561L1 641" stroke="#FAFAFA" stroke-opacity="0.0823529" stroke-width="1.25" stroke-dasharray="2.5 2.5"/>
<path opacity="0.15" d="M81 561H1V641H81V561Z" stroke="#FAFAFA" stroke-opacity="0.0823529" stroke-width="1.25" stroke-dasharray="2.5 2.5"/>
<path d="M81 561L161 641" stroke="#FAFAFA" stroke-opacity="0.0823529" stroke-width="1.25" stroke-dasharray="2.5 2.5"/>
<path d="M161 561L81 641" stroke="#FAFAFA" stroke-opacity="0.0823529" stroke-width="1.25" stroke-dasharray="2.5 2.5"/>
<path opacity="0.15" d="M161 561H81V641H161V561Z" stroke="#FAFAFA" stroke-opacity="0.0823529" stroke-width="1.25" stroke-dasharray="2.5 2.5"/>
<path d="M161 561L241 641" stroke="#FAFAFA" stroke-opacity="0.0823529" stroke-width="1.25" stroke-dasharray="2.5 2.5"/>
<path d="M241 561L161 641" stroke="#FAFAFA" stroke-opacity="0.0823529" stroke-width="1.25" stroke-dasharray="2.5 2.5"/>
<path opacity="0.15" d="M241 561H161V641H241V561Z" stroke="#FAFAFA" stroke-opacity="0.0823529" stroke-width="1.25" stroke-dasharray="2.5 2.5"/>
<path d="M241 561L321 641" stroke="#FAFAFA" stroke-opacity="0.0823529" stroke-width="1.25" stroke-dasharray="2.5 2.5"/>
<path d="M321 561L241 641" stroke="#FAFAFA" stroke-opacity="0.0823529" stroke-width="1.25" stroke-dasharray="2.5 2.5"/>
<path opacity="0.15" d="M321 561H241V641H321V561Z" stroke="#FAFAFA" stroke-opacity="0.0823529" stroke-width="1.25" stroke-dasharray="2.5 2.5"/>
<path d="M321 561L401 641" stroke="#FAFAFA" stroke-opacity="0.0823529" stroke-width="1.25" stroke-dasharray="2.5 2.5"/>
<path d="M401 561L321 641" stroke="#FAFAFA" stroke-opacity="0.0823529" stroke-width="1.25" stroke-dasharray="2.5 2.5"/>
<path opacity="0.15" d="M401 561H321V641H401V561Z" stroke="#FAFAFA" stroke-opacity="0.0823529" stroke-width="1.25" stroke-dasharray="2.5 2.5"/>
<path d="M401 561L481 641" stroke="#FAFAFA" stroke-opacity="0.0823529" stroke-width="1.25" stroke-dasharray="2.5 2.5"/>
<path d="M481 561L401 641" stroke="#FAFAFA" stroke-opacity="0.0823529" stroke-width="1.25" stroke-dasharray="2.5 2.5"/>
<path opacity="0.15" d="M481 561H401V641H481V561Z" stroke="#FAFAFA" stroke-opacity="0.0823529" stroke-width="1.25" stroke-dasharray="2.5 2.5"/>
<path d="M481 561L561 641" stroke="#FAFAFA" stroke-opacity="0.0823529" stroke-width="1.25" stroke-dasharray="2.5 2.5"/>
<path d="M561 561L481 641" stroke="#FAFAFA" stroke-opacity="0.0823529" stroke-width="1.25" stroke-dasharray="2.5 2.5"/>
<path opacity="0.15" d="M561 561H481V641H561V561Z" stroke="#FAFAFA" stroke-opacity="0.0823529" stroke-width="1.25" stroke-dasharray="2.5 2.5"/>
<path d="M561 561L641 641" stroke="#FAFAFA" stroke-opacity="0.0823529" stroke-width="1.25" stroke-dasharray="2.5 2.5"/>
<path d="M641 561L561 641" stroke="#FAFAFA" stroke-opacity="0.0823529" stroke-width="1.25" stroke-dasharray="2.5 2.5"/>
<path opacity="0.15" d="M641 561H561V641H641V561Z" stroke="#FAFAFA" stroke-opacity="0.0823529" stroke-width="1.25" stroke-dasharray="2.5 2.5"/>
<path d="M641 561L721 641" stroke="#FAFAFA" stroke-opacity="0.0823529" stroke-width="1.25" stroke-dasharray="2.5 2.5"/>
<path d="M721 561L641 641" stroke="#FAFAFA" stroke-opacity="0.0823529" stroke-width="1.25" stroke-dasharray="2.5 2.5"/>
<path opacity="0.15" d="M721 561H641V641H721V561Z" stroke="#FAFAFA" stroke-opacity="0.0823529" stroke-width="1.25" stroke-dasharray="2.5 2.5"/>
<path d="M721 561L801 641" stroke="#FAFAFA" stroke-opacity="0.0823529" stroke-width="1.25" stroke-dasharray="2.5 2.5"/>
<path d="M801 561L721 641" stroke="#FAFAFA" stroke-opacity="0.0823529" stroke-width="1.25" stroke-dasharray="2.5 2.5"/>
<path opacity="0.15" d="M801 561H721V641H801V561Z" stroke="#FAFAFA" stroke-opacity="0.0823529" stroke-width="1.25" stroke-dasharray="2.5 2.5"/>
<path d="M801 561L881 641" stroke="#FAFAFA" stroke-opacity="0.0823529" stroke-width="1.25" stroke-dasharray="2.5 2.5"/>
<path d="M881 561L801 641" stroke="#FAFAFA" stroke-opacity="0.0823529" stroke-width="1.25" stroke-dasharray="2.5 2.5"/>
<path opacity="0.15" d="M881 561H801V641H881V561Z" stroke="#FAFAFA" stroke-opacity="0.0823529" stroke-width="1.25" stroke-dasharray="2.5 2.5"/>
<path d="M1 641L81 721" stroke="#FAFAFA" stroke-opacity="0.0823529" stroke-width="1.25" stroke-dasharray="2.5 2.5"/>
<path d="M81 641L1 721" stroke="#FAFAFA" stroke-opacity="0.0823529" stroke-width="1.25" stroke-dasharray="2.5 2.5"/>
<path opacity="0.15" d="M81 641H1V721H81V641Z" stroke="#FAFAFA" stroke-opacity="0.0823529" stroke-width="1.25" stroke-dasharray="2.5 2.5"/>
<path d="M81 641L161 721" stroke="#FAFAFA" stroke-opacity="0.0823529" stroke-width="1.25" stroke-dasharray="2.5 2.5"/>
<path d="M161 641L81 721" stroke="#FAFAFA" stroke-opacity="0.0823529" stroke-width="1.25" stroke-dasharray="2.5 2.5"/>
<path opacity="0.15" d="M161 641H81V721H161V641Z" stroke="#FAFAFA" stroke-opacity="0.0823529" stroke-width="1.25" stroke-dasharray="2.5 2.5"/>
<path d="M161 641L241 721" stroke="#FAFAFA" stroke-opacity="0.0823529" stroke-width="1.25" stroke-dasharray="2.5 2.5"/>
<path d="M241 641L161 721" stroke="#FAFAFA" stroke-opacity="0.0823529" stroke-width="1.25" stroke-dasharray="2.5 2.5"/>
<path opacity="0.15" d="M241 641H161V721H241V641Z" stroke="#FAFAFA" stroke-opacity="0.0823529" stroke-width="1.25" stroke-dasharray="2.5 2.5"/>
<path d="M241 641L321 721" stroke="#FAFAFA" stroke-opacity="0.0823529" stroke-width="1.25" stroke-dasharray="2.5 2.5"/>
<path d="M321 641L241 721" stroke="#FAFAFA" stroke-opacity="0.0823529" stroke-width="1.25" stroke-dasharray="2.5 2.5"/>
<path opacity="0.15" d="M321 641H241V721H321V641Z" stroke="#FAFAFA" stroke-opacity="0.0823529" stroke-width="1.25" stroke-dasharray="2.5 2.5"/>
<path d="M321 641L401 721" stroke="#FAFAFA" stroke-opacity="0.0823529" stroke-width="1.25" stroke-dasharray="2.5 2.5"/>
<path d="M401 641L321 721" stroke="#FAFAFA" stroke-opacity="0.0823529" stroke-width="1.25" stroke-dasharray="2.5 2.5"/>
<path opacity="0.15" d="M401 641H321V721H401V641Z" stroke="#FAFAFA" stroke-opacity="0.0823529" stroke-width="1.25" stroke-dasharray="2.5 2.5"/>
<path d="M401 641L481 721" stroke="#FAFAFA" stroke-opacity="0.0823529" stroke-width="1.25" stroke-dasharray="2.5 2.5"/>
<path d="M481 641L401 721" stroke="#FAFAFA" stroke-opacity="0.0823529" stroke-width="1.25" stroke-dasharray="2.5 2.5"/>
<path opacity="0.15" d="M481 641H401V721H481V641Z" stroke="#FAFAFA" stroke-opacity="0.0823529" stroke-width="1.25" stroke-dasharray="2.5 2.5"/>
<path d="M481 641L561 721" stroke="#FAFAFA" stroke-opacity="0.0823529" stroke-width="1.25" stroke-dasharray="2.5 2.5"/>
<path d="M561 641L481 721" stroke="#FAFAFA" stroke-opacity="0.0823529" stroke-width="1.25" stroke-dasharray="2.5 2.5"/>
<path opacity="0.15" d="M561 641H481V721H561V641Z" stroke="#FAFAFA" stroke-opacity="0.0823529" stroke-width="1.25" stroke-dasharray="2.5 2.5"/>
<path d="M561 641L641 721" stroke="#FAFAFA" stroke-opacity="0.0823529" stroke-width="1.25" stroke-dasharray="2.5 2.5"/>
<path d="M641 641L561 721" stroke="#FAFAFA" stroke-opacity="0.0823529" stroke-width="1.25" stroke-dasharray="2.5 2.5"/>
<path opacity="0.15" d="M641 641H561V721H641V641Z" stroke="#FAFAFA" stroke-opacity="0.0823529" stroke-width="1.25" stroke-dasharray="2.5 2.5"/>
<path d="M641 641L721 721" stroke="#FAFAFA" stroke-opacity="0.0823529" stroke-width="1.25" stroke-dasharray="2.5 2.5"/>
<path d="M721 641L641 721" stroke="#FAFAFA" stroke-opacity="0.0823529" stroke-width="1.25" stroke-dasharray="2.5 2.5"/>
<path opacity="0.15" d="M721 641H641V721H721V641Z" stroke="#FAFAFA" stroke-opacity="0.0823529" stroke-width="1.25" stroke-dasharray="2.5 2.5"/>
<path d="M721 641L801 721" stroke="#FAFAFA" stroke-opacity="0.0823529" stroke-width="1.25" stroke-dasharray="2.5 2.5"/>
<path d="M801 641L721 721" stroke="#FAFAFA" stroke-opacity="0.0823529" stroke-width="1.25" stroke-dasharray="2.5 2.5"/>
<path opacity="0.15" d="M801 641H721V721H801V641Z" stroke="#FAFAFA" stroke-opacity="0.0823529" stroke-width="1.25" stroke-dasharray="2.5 2.5"/>
<path d="M801 641L881 721" stroke="#FAFAFA" stroke-opacity="0.0823529" stroke-width="1.25" stroke-dasharray="2.5 2.5"/>
<path d="M881 641L801 721" stroke="#FAFAFA" stroke-opacity="0.0823529" stroke-width="1.25" stroke-dasharray="2.5 2.5"/>
<path opacity="0.15" d="M881 641H801V721H881V641Z" stroke="#FAFAFA" stroke-opacity="0.0823529" stroke-width="1.25" stroke-dasharray="2.5 2.5"/>
<path d="M1 721L81 801" stroke="#FAFAFA" stroke-opacity="0.0823529" stroke-width="1.25" stroke-dasharray="2.5 2.5"/>
<path d="M81 721L1 801" stroke="#FAFAFA" stroke-opacity="0.0823529" stroke-width="1.25" stroke-dasharray="2.5 2.5"/>
<path opacity="0.15" d="M81 721H1V801H81V721Z" stroke="#FAFAFA" stroke-opacity="0.0823529" stroke-width="1.25" stroke-dasharray="2.5 2.5"/>
<path d="M81 721L161 801" stroke="#FAFAFA" stroke-opacity="0.0823529" stroke-width="1.25" stroke-dasharray="2.5 2.5"/>
<path d="M161 721L81 801" stroke="#FAFAFA" stroke-opacity="0.0823529" stroke-width="1.25" stroke-dasharray="2.5 2.5"/>
<path opacity="0.15" d="M161 721H81V801H161V721Z" stroke="#FAFAFA" stroke-opacity="0.0823529" stroke-width="1.25" stroke-dasharray="2.5 2.5"/>
<path d="M161 721L241 801" stroke="#FAFAFA" stroke-opacity="0.0823529" stroke-width="1.25" stroke-dasharray="2.5 2.5"/>
<path d="M241 721L161 801" stroke="#FAFAFA" stroke-opacity="0.0823529" stroke-width="1.25" stroke-dasharray="2.5 2.5"/>
<path opacity="0.15" d="M241 721H161V801H241V721Z" stroke="#FAFAFA" stroke-opacity="0.0823529" stroke-width="1.25" stroke-dasharray="2.5 2.5"/>
<path d="M241 721L321 801" stroke="#FAFAFA" stroke-opacity="0.0823529" stroke-width="1.25" stroke-dasharray="2.5 2.5"/>
<path d="M321 721L241 801" stroke="#FAFAFA" stroke-opacity="0.0823529" stroke-width="1.25" stroke-dasharray="2.5 2.5"/>
<path opacity="0.15" d="M321 721H241V801H321V721Z" stroke="#FAFAFA" stroke-opacity="0.0823529" stroke-width="1.25" stroke-dasharray="2.5 2.5"/>
<path d="M321 721L401 801" stroke="#FAFAFA" stroke-opacity="0.0823529" stroke-width="1.25" stroke-dasharray="2.5 2.5"/>
<path d="M401 721L321 801" stroke="#FAFAFA" stroke-opacity="0.0823529" stroke-width="1.25" stroke-dasharray="2.5 2.5"/>
<path opacity="0.15" d="M401 721H321V801H401V721Z" stroke="#FAFAFA" stroke-opacity="0.0823529" stroke-width="1.25" stroke-dasharray="2.5 2.5"/>
<path d="M401 721L481 801" stroke="#FAFAFA" stroke-opacity="0.0823529" stroke-width="1.25" stroke-dasharray="2.5 2.5"/>
<path d="M481 721L401 801" stroke="#FAFAFA" stroke-opacity="0.0823529" stroke-width="1.25" stroke-dasharray="2.5 2.5"/>
<path opacity="0.15" d="M481 721H401V801H481V721Z" stroke="#FAFAFA" stroke-opacity="0.0823529" stroke-width="1.25" stroke-dasharray="2.5 2.5"/>
<path d="M481 721L561 801" stroke="#FAFAFA" stroke-opacity="0.0823529" stroke-width="1.25" stroke-dasharray="2.5 2.5"/>
<path d="M561 721L481 801" stroke="#FAFAFA" stroke-opacity="0.0823529" stroke-width="1.25" stroke-dasharray="2.5 2.5"/>
<path opacity="0.15" d="M561 721H481V801H561V721Z" stroke="#FAFAFA" stroke-opacity="0.0823529" stroke-width="1.25" stroke-dasharray="2.5 2.5"/>
<path d="M561 721L641 801" stroke="#FAFAFA" stroke-opacity="0.0823529" stroke-width="1.25" stroke-dasharray="2.5 2.5"/>
<path d="M641 721L561 801" stroke="#FAFAFA" stroke-opacity="0.0823529" stroke-width="1.25" stroke-dasharray="2.5 2.5"/>
<path opacity="0.15" d="M641 721H561V801H641V721Z" stroke="#FAFAFA" stroke-opacity="0.0823529" stroke-width="1.25" stroke-dasharray="2.5 2.5"/>
<path d="M641 721L721 801" stroke="#FAFAFA" stroke-opacity="0.0823529" stroke-width="1.25" stroke-dasharray="2.5 2.5"/>
<path d="M721 721L641 801" stroke="#FAFAFA" stroke-opacity="0.0823529" stroke-width="1.25" stroke-dasharray="2.5 2.5"/>
<path opacity="0.15" d="M721 721H641V801H721V721Z" stroke="#FAFAFA" stroke-opacity="0.0823529" stroke-width="1.25" stroke-dasharray="2.5 2.5"/>
<path d="M721 721L801 801" stroke="#FAFAFA" stroke-opacity="0.0823529" stroke-width="1.25" stroke-dasharray="2.5 2.5"/>
<path d="M801 721L721 801" stroke="#FAFAFA" stroke-opacity="0.0823529" stroke-width="1.25" stroke-dasharray="2.5 2.5"/>
<path opacity="0.15" d="M801 721H721V801H801V721Z" stroke="#FAFAFA" stroke-opacity="0.0823529" stroke-width="1.25" stroke-dasharray="2.5 2.5"/>
<path d="M801 721L881 801" stroke="#FAFAFA" stroke-opacity="0.0823529" stroke-width="1.25" stroke-dasharray="2.5 2.5"/>
<path d="M881 721L801 801" stroke="#FAFAFA" stroke-opacity="0.0823529" stroke-width="1.25" stroke-dasharray="2.5 2.5"/>
<path opacity="0.15" d="M881 721H801V801H881V721Z" stroke="#FAFAFA" stroke-opacity="0.0823529" stroke-width="1.25" stroke-dasharray="2.5 2.5"/>
<path d="M1 801L81 881" stroke="#FAFAFA" stroke-opacity="0.0823529" stroke-width="1.25" stroke-dasharray="2.5 2.5"/>
<path d="M81 801L1 881" stroke="#FAFAFA" stroke-opacity="0.0823529" stroke-width="1.25" stroke-dasharray="2.5 2.5"/>
<path opacity="0.15" d="M81 801H1V881H81V801Z" stroke="#FAFAFA" stroke-opacity="0.0823529" stroke-width="1.25" stroke-dasharray="2.5 2.5"/>
<path d="M81 801L161 881" stroke="#FAFAFA" stroke-opacity="0.0823529" stroke-width="1.25" stroke-dasharray="2.5 2.5"/>
<path d="M161 801L81 881" stroke="#FAFAFA" stroke-opacity="0.0823529" stroke-width="1.25" stroke-dasharray="2.5 2.5"/>
<path opacity="0.15" d="M161 801H81V881H161V801Z" stroke="#FAFAFA" stroke-opacity="0.0823529" stroke-width="1.25" stroke-dasharray="2.5 2.5"/>
<path d="M161 801L241 881" stroke="#FAFAFA" stroke-opacity="0.0823529" stroke-width="1.25" stroke-dasharray="2.5 2.5"/>
<path d="M241 801L161 881" stroke="#FAFAFA" stroke-opacity="0.0823529" stroke-width="1.25" stroke-dasharray="2.5 2.5"/>
<path opacity="0.15" d="M241 801H161V881H241V801Z" stroke="#FAFAFA" stroke-opacity="0.0823529" stroke-width="1.25" stroke-dasharray="2.5 2.5"/>
<path d="M241 801L321 881" stroke="#FAFAFA" stroke-opacity="0.0823529" stroke-width="1.25" stroke-dasharray="2.5 2.5"/>
<path d="M321 801L241 881" stroke="#FAFAFA" stroke-opacity="0.0823529" stroke-width="1.25" stroke-dasharray="2.5 2.5"/>
<path opacity="0.15" d="M321 801H241V881H321V801Z" stroke="#FAFAFA" stroke-opacity="0.0823529" stroke-width="1.25" stroke-dasharray="2.5 2.5"/>
<path d="M321 801L401 881" stroke="#FAFAFA" stroke-opacity="0.0823529" stroke-width="1.25" stroke-dasharray="2.5 2.5"/>
<path d="M401 801L321 881" stroke="#FAFAFA" stroke-opacity="0.0823529" stroke-width="1.25" stroke-dasharray="2.5 2.5"/>
<path opacity="0.15" d="M401 801H321V881H401V801Z" stroke="#FAFAFA" stroke-opacity="0.0823529" stroke-width="1.25" stroke-dasharray="2.5 2.5"/>
<path d="M401 801L481 881" stroke="#FAFAFA" stroke-opacity="0.0823529" stroke-width="1.25" stroke-dasharray="2.5 2.5"/>
<path d="M481 801L401 881" stroke="#FAFAFA" stroke-opacity="0.0823529" stroke-width="1.25" stroke-dasharray="2.5 2.5"/>
<path opacity="0.15" d="M481 801H401V881H481V801Z" stroke="#FAFAFA" stroke-opacity="0.0823529" stroke-width="1.25" stroke-dasharray="2.5 2.5"/>
<path d="M481 801L561 881" stroke="#FAFAFA" stroke-opacity="0.0823529" stroke-width="1.25" stroke-dasharray="2.5 2.5"/>
<path d="M561 801L481 881" stroke="#FAFAFA" stroke-opacity="0.0823529" stroke-width="1.25" stroke-dasharray="2.5 2.5"/>
<path opacity="0.15" d="M561 801H481V881H561V801Z" stroke="#FAFAFA" stroke-opacity="0.0823529" stroke-width="1.25" stroke-dasharray="2.5 2.5"/>
<path d="M561 801L641 881" stroke="#FAFAFA" stroke-opacity="0.0823529" stroke-width="1.25" stroke-dasharray="2.5 2.5"/>
<path d="M641 801L561 881" stroke="#FAFAFA" stroke-opacity="0.0823529" stroke-width="1.25" stroke-dasharray="2.5 2.5"/>
<path opacity="0.15" d="M641 801H561V881H641V801Z" stroke="#FAFAFA" stroke-opacity="0.0823529" stroke-width="1.25" stroke-dasharray="2.5 2.5"/>
<path d="M641 801L721 881" stroke="#FAFAFA" stroke-opacity="0.0823529" stroke-width="1.25" stroke-dasharray="2.5 2.5"/>
<path d="M721 801L641 881" stroke="#FAFAFA" stroke-opacity="0.0823529" stroke-width="1.25" stroke-dasharray="2.5 2.5"/>
<path opacity="0.15" d="M721 801H641V881H721V801Z" stroke="#FAFAFA" stroke-opacity="0.0823529" stroke-width="1.25" stroke-dasharray="2.5 2.5"/>
<path d="M721 801L801 881" stroke="#FAFAFA" stroke-opacity="0.0823529" stroke-width="1.25" stroke-dasharray="2.5 2.5"/>
<path d="M801 801L721 881" stroke="#FAFAFA" stroke-opacity="0.0823529" stroke-width="1.25" stroke-dasharray="2.5 2.5"/>
<path opacity="0.15" d="M801 801H721V881H801V801Z" stroke="#FAFAFA" stroke-opacity="0.0823529" stroke-width="1.25" stroke-dasharray="2.5 2.5"/>
<path d="M801 801L881 881" stroke="#FAFAFA" stroke-opacity="0.0823529" stroke-width="1.25" stroke-dasharray="2.5 2.5"/>
<path d="M881 801L801 881" stroke="#FAFAFA" stroke-opacity="0.0823529" stroke-width="1.25" stroke-dasharray="2.5 2.5"/>
<path opacity="0.15" d="M881 801H801V881H881V801Z" stroke="#FAFAFA" stroke-opacity="0.0823529" stroke-width="1.25" stroke-dasharray="2.5 2.5"/>
</svg>
