<svg width="2960" height="502" viewBox="0 0 2960 502" fill="none" xmlns="http://www.w3.org/2000/svg">
<path d="M57.9873 111.568C53.7032 104.147 59.0584 94.8718 67.6267 94.8717L277.282 94.8718C285.85 94.8718 291.205 104.147 286.921 111.568L182.094 293.134C177.809 300.555 167.099 300.555 162.815 293.134L57.9873 111.568Z" fill="white"/>
<path d="M154.784 363.116C154.784 398.463 126.13 427.117 90.7832 427.117C55.4367 427.117 26.7827 398.463 26.7827 363.116C26.7827 327.77 55.4367 299.116 90.7832 299.116C126.13 299.116 154.784 327.77 154.784 363.116Z" fill="white"/>
<path d="M226.905 470C196.294 452.327 185.806 413.184 203.48 382.573L335.335 154.193C353.009 123.582 392.151 113.094 422.762 130.767V130.767C453.373 148.44 463.861 187.582 446.187 218.193L314.332 446.574C296.658 477.185 257.516 487.673 226.905 470V470Z" fill="white"/>
<path d="M2955.78 257.553L2914.77 262.027C2913.61 257.884 2911.58 253.99 2908.68 250.344C2905.86 246.698 2902.05 243.756 2897.24 241.519C2892.44 239.282 2886.56 238.163 2879.6 238.163C2870.23 238.163 2862.36 240.193 2855.98 244.254C2849.68 248.314 2846.58 253.575 2846.66 260.038C2846.58 265.59 2848.61 270.106 2852.75 273.586C2856.97 277.066 2863.93 279.925 2873.63 282.162L2906.19 289.122C2924.26 293.017 2937.68 299.19 2946.46 307.641C2955.33 316.093 2959.8 327.155 2959.89 340.827C2959.8 352.841 2956.28 363.447 2949.32 372.645C2942.44 381.759 2932.87 388.885 2920.61 394.023C2908.35 399.16 2894.26 401.729 2878.35 401.729C2854.99 401.729 2836.18 396.84 2821.92 387.062C2807.67 377.202 2799.18 363.489 2796.45 345.923L2840.32 341.697C2842.31 350.314 2846.53 356.819 2853 361.21C2859.46 365.602 2867.87 367.798 2878.23 367.798C2888.92 367.798 2897.49 365.602 2903.96 361.21C2910.5 356.819 2913.77 351.391 2913.77 344.928C2913.77 339.459 2911.66 334.944 2907.44 331.381C2903.29 327.818 2896.83 325.083 2888.05 323.178L2855.48 316.342C2837.17 312.53 2823.62 306.108 2814.84 297.077C2806.06 287.962 2801.71 276.445 2801.79 262.524C2801.71 250.758 2804.9 240.566 2811.36 231.949C2817.91 223.249 2826.98 216.537 2838.58 211.814C2850.26 207.008 2863.73 204.605 2878.97 204.605C2901.35 204.605 2918.95 209.37 2931.8 218.898C2944.72 228.427 2952.72 241.312 2955.78 257.553Z" fill="white"/>
<path d="M2646.65 338.092L2646.52 283.778H2653.73L2722.34 207.091H2774.91L2690.52 301.054H2681.2L2646.65 338.092ZM2605.63 398V143.455H2650.62V398H2605.63ZM2725.44 398L2663.3 311.121L2693.63 279.428L2779.26 398H2725.44Z" fill="white"/>
<path d="M2486.9 401.729C2467.84 401.729 2451.48 397.544 2437.81 389.175C2424.22 380.807 2413.74 369.248 2406.36 354.499C2399.07 339.667 2395.42 322.598 2395.42 303.291C2395.42 283.902 2399.15 266.791 2406.61 251.96C2414.07 237.045 2424.59 225.444 2438.18 217.158C2451.85 208.79 2468.01 204.605 2486.65 204.605C2502.15 204.605 2515.86 207.464 2527.79 213.181C2539.81 218.816 2549.38 226.812 2556.5 237.169C2563.63 247.444 2567.69 259.458 2568.68 273.213H2525.68C2523.94 264.016 2519.8 256.351 2513.25 250.219C2506.79 244.005 2498.13 240.898 2487.27 240.898C2478.08 240.898 2470 243.383 2463.04 248.355C2456.08 253.244 2450.65 260.287 2446.76 269.484C2442.94 278.682 2441.04 289.702 2441.04 302.545C2441.04 315.554 2442.94 326.741 2446.76 336.104C2450.57 345.384 2455.91 352.551 2462.79 357.606C2469.75 362.577 2477.91 365.063 2487.27 365.063C2493.9 365.063 2499.83 363.82 2505.05 361.334C2510.35 358.766 2514.78 355.079 2518.35 350.273C2521.91 345.467 2524.35 339.625 2525.68 332.748H2568.68C2567.61 346.254 2563.63 358.227 2556.75 368.668C2549.88 379.025 2540.51 387.145 2528.66 393.028C2516.81 398.829 2502.89 401.729 2486.9 401.729Z" fill="white"/>
<path d="M2273.96 401.729C2255.32 401.729 2239.16 397.627 2225.49 389.424C2211.82 381.221 2201.21 369.745 2193.67 354.996C2186.21 340.247 2182.48 323.012 2182.48 303.291C2182.48 283.571 2186.21 266.294 2193.67 251.462C2201.21 236.63 2211.82 225.113 2225.49 216.91C2239.16 208.707 2255.32 204.605 2273.96 204.605C2292.61 204.605 2308.76 208.707 2322.44 216.91C2336.11 225.113 2346.67 236.63 2354.13 251.462C2361.67 266.294 2365.44 283.571 2365.44 303.291C2365.44 323.012 2361.67 340.247 2354.13 354.996C2346.67 369.745 2336.11 381.221 2322.44 389.424C2308.76 397.627 2292.61 401.729 2273.96 401.729ZM2274.21 365.685C2284.32 365.685 2292.77 362.909 2299.57 357.357C2306.36 351.723 2311.41 344.183 2314.73 334.736C2318.13 325.29 2319.83 314.767 2319.83 303.167C2319.83 291.484 2318.13 280.919 2314.73 271.473C2311.41 261.944 2306.36 254.362 2299.57 248.728C2292.77 243.093 2284.32 240.276 2274.21 240.276C2263.85 240.276 2255.24 243.093 2248.36 248.728C2241.56 254.362 2236.47 261.944 2233.07 271.473C2229.76 280.919 2228.1 291.484 2228.1 303.167C2228.1 314.767 2229.76 325.29 2233.07 334.736C2236.47 344.183 2241.56 351.723 2248.36 357.357C2255.24 362.909 2263.85 365.685 2274.21 365.685Z" fill="white"/>
<path d="M2144.42 143.455V398H2099.43V143.455H2144.42Z" fill="white"/>
<path d="M1871.39 398V143.455H1968.83C1987.23 143.455 2002.51 146.355 2014.69 152.155C2026.96 157.872 2036.11 165.702 2042.16 175.646C2048.29 185.589 2051.36 196.858 2051.36 209.452C2051.36 219.81 2049.37 228.676 2045.39 236.05C2041.42 243.342 2036.07 249.267 2029.36 253.824C2022.65 258.381 2015.15 261.654 2006.86 263.643V266.129C2015.9 266.626 2024.55 269.402 2032.84 274.456C2041.21 279.428 2048.04 286.471 2053.35 295.585C2058.65 304.7 2061.3 315.72 2061.3 328.646C2061.3 341.821 2058.11 353.67 2051.73 364.193C2045.35 374.634 2035.74 382.878 2022.9 388.927C2010.05 394.976 1993.9 398 1974.42 398H1871.39ZM1917.5 359.47H1967.09C1983.83 359.47 1995.88 356.28 2003.26 349.9C2010.72 343.437 2014.45 335.151 2014.45 325.042C2014.45 317.502 2012.58 310.707 2008.85 304.658C2005.12 298.527 1999.82 293.721 1992.94 290.241C1986.07 286.678 1977.86 284.896 1968.33 284.896H1917.5V359.47ZM1917.5 251.711H1963.11C1971.07 251.711 1978.24 250.261 1984.62 247.361C1991 244.378 1996.01 240.193 1999.65 234.808C2003.38 229.339 2005.25 222.876 2005.25 215.418C2005.25 205.558 2001.77 197.438 1994.81 191.058C1987.93 184.677 1977.7 181.487 1964.11 181.487H1917.5V251.711Z" fill="white"/>
<path d="M1646.86 473.568C1630.7 473.568 1616.82 471.372 1605.22 466.981C1593.62 462.672 1584.3 456.872 1577.26 449.58C1570.21 442.289 1565.32 434.21 1562.59 425.344L1603.11 415.525C1604.93 419.254 1607.58 422.941 1611.06 426.587C1614.54 430.315 1619.22 433.381 1625.11 435.784C1631.07 438.27 1638.57 439.513 1647.6 439.513C1660.36 439.513 1670.93 436.406 1679.3 430.191C1687.67 424.059 1691.85 413.951 1691.85 399.864V363.696H1689.61C1687.29 368.336 1683.9 373.101 1679.42 377.989C1675.03 382.878 1669.19 386.98 1661.9 390.294C1654.69 393.608 1645.62 395.266 1634.68 395.266C1620.01 395.266 1606.71 391.827 1594.78 384.95C1582.93 377.989 1573.49 367.632 1566.44 353.877C1559.48 340.04 1556 322.722 1556 301.924C1556 280.96 1559.48 263.27 1566.44 248.852C1573.49 234.352 1582.97 223.373 1594.91 215.915C1606.84 208.375 1620.14 204.605 1634.8 204.605C1645.99 204.605 1655.19 206.511 1662.39 210.322C1669.69 214.051 1675.49 218.567 1679.79 223.87C1684.1 229.09 1687.38 234.02 1689.61 238.66H1692.1V207.091H1736.47V401.107C1736.47 417.431 1732.58 430.937 1724.79 441.626C1717 452.315 1706.35 460.311 1692.85 465.614C1679.34 470.917 1664.01 473.568 1646.86 473.568ZM1647.23 359.967C1656.76 359.967 1664.88 357.647 1671.59 353.007C1678.3 348.367 1683.4 341.697 1686.88 332.996C1690.36 324.296 1692.1 313.856 1692.1 301.675C1692.1 289.661 1690.36 279.138 1686.88 270.106C1683.48 261.074 1678.43 254.072 1671.72 249.101C1665.09 244.046 1656.93 241.519 1647.23 241.519C1637.21 241.519 1628.84 244.129 1622.12 249.349C1615.41 254.57 1610.36 261.737 1606.96 270.852C1603.56 279.883 1601.87 290.158 1601.87 301.675C1601.87 313.359 1603.56 323.592 1606.96 332.375C1610.44 341.075 1615.54 347.87 1622.25 352.758C1629.04 357.564 1637.37 359.967 1647.23 359.967Z" fill="white"/>
<path d="M1395.54 286.139V398H1350.55V207.091H1393.56V239.531H1395.79C1400.18 228.842 1407.19 220.348 1416.8 214.051C1426.49 207.754 1438.47 204.605 1452.72 204.605C1465.89 204.605 1477.37 207.422 1487.15 213.057C1497.01 218.691 1504.63 226.853 1510.02 237.542C1515.48 248.231 1518.18 261.198 1518.09 276.445V398H1473.1V283.405C1473.1 270.644 1469.79 260.66 1463.16 253.451C1456.61 246.242 1447.54 242.638 1435.94 242.638C1428.07 242.638 1421.06 244.378 1414.93 247.858C1408.88 251.255 1404.12 256.185 1400.64 262.648C1397.24 269.111 1395.54 276.942 1395.54 286.139Z" fill="white"/>
<path d="M1259.29 398V207.091H1304.28V398H1259.29ZM1281.91 179.996C1274.79 179.996 1268.65 177.634 1263.52 172.911C1258.38 168.105 1255.81 162.347 1255.81 155.635C1255.81 148.84 1258.38 143.082 1263.52 138.359C1268.65 133.553 1274.79 131.15 1281.91 131.15C1289.12 131.15 1295.25 133.553 1300.31 138.359C1305.44 143.082 1308.01 148.84 1308.01 155.635C1308.01 162.347 1305.44 168.105 1300.31 172.911C1295.25 177.634 1289.12 179.996 1281.91 179.996Z" fill="white"/>
<path d="M1218.09 257.553L1177.07 262.027C1175.91 257.884 1173.88 253.99 1170.98 250.344C1168.17 246.698 1164.35 243.756 1159.55 241.519C1154.74 239.282 1148.86 238.163 1141.9 238.163C1132.54 238.163 1124.66 240.193 1118.28 244.254C1111.99 248.314 1108.88 253.575 1108.96 260.038C1108.88 265.59 1110.91 270.106 1115.05 273.586C1119.28 277.066 1126.24 279.925 1135.93 282.162L1168.5 289.122C1186.56 293.017 1199.98 299.19 1208.77 307.641C1217.63 316.093 1222.11 327.155 1222.19 340.827C1222.11 352.841 1218.59 363.447 1211.63 372.645C1204.75 381.759 1195.18 388.885 1182.92 394.023C1170.65 399.16 1156.57 401.729 1140.66 401.729C1117.29 401.729 1098.48 396.84 1084.23 387.062C1069.98 377.202 1061.48 363.489 1058.75 345.923L1102.62 341.697C1104.61 350.314 1108.84 356.819 1115.3 361.21C1121.76 365.602 1130.18 367.798 1140.53 367.798C1151.22 367.798 1159.8 365.602 1166.26 361.21C1172.81 356.819 1176.08 351.391 1176.08 344.928C1176.08 339.459 1173.97 334.944 1169.74 331.381C1165.6 327.818 1159.13 325.083 1150.35 323.178L1117.79 316.342C1099.48 312.53 1085.93 306.108 1077.14 297.077C1068.36 287.962 1064.01 276.445 1064.09 262.524C1064.01 250.758 1067.2 240.566 1073.66 231.949C1080.21 223.249 1089.28 216.537 1100.88 211.814C1112.57 207.008 1126.03 204.605 1141.28 204.605C1163.65 204.605 1181.26 209.37 1194.1 218.898C1207.03 228.427 1215.02 241.312 1218.09 257.553Z" fill="white"/>
<path d="M944.248 401.729C925.107 401.729 908.577 397.751 894.656 389.797C880.819 381.759 870.171 370.408 862.714 355.741C855.257 340.992 851.528 323.633 851.528 303.664C851.528 284.026 855.257 266.791 862.714 251.96C870.254 237.045 880.777 225.444 894.284 217.158C907.79 208.79 923.657 204.605 941.887 204.605C953.653 204.605 964.756 206.511 975.196 210.322C985.719 214.051 995 219.851 1003.04 227.723C1011.16 235.595 1017.54 245.621 1022.18 257.801C1026.82 269.899 1029.14 284.316 1029.14 301.054V314.85H872.657V284.523H986.009C985.927 275.906 984.062 268.241 980.416 261.53C976.771 254.735 971.675 249.391 965.129 245.496C958.666 241.602 951.125 239.655 942.508 239.655C933.311 239.655 925.232 241.892 918.271 246.366C911.311 250.758 905.884 256.558 901.99 263.767C898.178 270.893 896.231 278.723 896.148 287.258V313.732C896.148 324.835 898.178 334.364 902.238 342.318C906.298 350.19 911.974 356.239 919.266 360.464C926.557 364.607 935.092 366.679 944.869 366.679C951.415 366.679 957.34 365.768 962.643 363.945C967.946 362.039 972.545 359.263 976.439 355.617C980.333 351.971 983.275 347.455 985.264 342.07L1027.27 346.793C1024.62 357.896 1019.57 367.59 1012.11 375.876C1004.74 384.08 995.29 390.46 983.772 395.017C972.255 399.491 959.08 401.729 944.248 401.729Z" fill="white"/>
<path d="M694.364 398H608.106V143.455H696.104C721.376 143.455 743.085 148.55 761.231 158.742C779.461 168.851 793.464 183.393 803.241 202.368C813.019 221.343 817.908 244.046 817.908 270.479C817.908 296.994 812.977 319.78 803.117 338.838C793.34 357.896 779.212 372.521 760.734 382.712C742.339 392.904 720.216 398 694.364 398ZM654.218 358.103H692.126C709.858 358.103 724.649 354.872 736.498 348.408C748.347 341.863 757.254 332.126 763.22 319.2C769.186 306.191 772.169 289.951 772.169 270.479C772.169 251.007 769.186 234.849 763.22 222.006C757.254 209.08 748.43 199.426 736.746 193.046C725.146 186.583 710.728 183.352 693.494 183.352H654.218V358.103Z" fill="white"/>
</svg>
