<svg width="512" height="512" viewBox="0 0 512 512" fill="none" xmlns="http://www.w3.org/2000/svg">
<path d="M74.9873 116.568C70.7032 109.147 76.0584 99.8718 84.6267 99.8717L294.282 99.8718C302.85 99.8718 308.205 109.147 303.921 116.568L199.094 298.134C194.809 305.555 184.099 305.555 179.815 298.134L74.9873 116.568Z" fill="white"/>
<path d="M171.784 368.116C171.784 403.463 143.13 432.117 107.783 432.117C72.4367 432.117 43.7827 403.463 43.7827 368.116C43.7827 332.77 72.4367 304.116 107.783 304.116C143.13 304.116 171.784 332.77 171.784 368.116Z" fill="white"/>
<path d="M243.905 475C213.294 457.327 202.806 418.184 220.48 387.573L352.335 159.193C370.009 128.582 409.151 118.094 439.762 135.767C470.373 153.44 480.861 192.582 463.187 223.193L331.332 451.574C313.658 482.185 274.516 492.673 243.905 475Z" fill="white"/>
</svg>
